<?xml version="1.0" encoding="UTF-8"?>
<svg width="36px" height="36px" viewBox="0 0 36 36" version="1.1" xmlns="http://www.w3.org/2000/svg" xmlns:xlink="http://www.w3.org/1999/xlink">
    <!-- Generator: Sketch 52.2 (67145) - http://www.bohemiancoding.com/sketch -->
    <title>iCON/36/单色/未解锁/灰色</title>
    <desc>Created with Sketch.</desc>
    <g id="iCON/36/单色/未解锁/灰色" stroke="none" stroke-width="1" fill="none" fill-rule="evenodd">
        <path d="M7.5,17 C7.22385763,17 7,17.2238576 7,17.5 L7,32.5 C7,32.7761424 7.22385763,33 7.5,33 L28.5,33 C28.7761424,33 29,32.7761424 29,32.5 L29,17.5 C29,17.2238576 28.7761424,17 28.5,17 L7.5,17 Z M7.5,14 L28.5,14 C30.4329966,14 32,15.5670034 32,17.5 L32,32.5 C32,34.4329966 30.4329966,36 28.5,36 L7.5,36 C5.56700338,36 4,34.4329966 4,32.5 L4,17.5 C4,15.5670034 5.56700338,14 7.5,14 Z" id="Rectangle-19" fill="#808080" fill-rule="nonzero"></path>
        <path d="M10.5,15.5 L10.5,11 C10.5,6.56412873 13.876543,3 18,3 C22.123457,3 25.5,6.56412873 25.5,11 L25.5,15.5 L28.5,15.5 L28.5,11 C28.5,4.94246103 23.8176685,-1.05471187e-15 18,0 C12.1823315,9.99200722e-16 7.5,4.94246103 7.5,11 L7.5,15.5 L10.5,15.5 Z" id="Rectangle" fill="#808080" fill-rule="nonzero"></path>
        <path d="M18,29.5 C15.2385763,29.5 13,27.2614237 13,24.5 C13,21.7385763 15.2385763,19.5 18,19.5 C20.7614237,19.5 23,21.7385763 23,24.5 C23,27.2614237 20.7614237,29.5 18,29.5 Z M18,26.5 C19.1045695,26.5 20,25.6045695 20,24.5 C20,23.3954305 19.1045695,22.5 18,22.5 C16.8954305,22.5 16,23.3954305 16,24.5 C16,25.6045695 16.8954305,26.5 18,26.5 Z" id="Oval-9" fill="#808080" fill-rule="nonzero"></path>
    </g>
</svg>